<svg xmlns="http://www.w3.org/2000/svg" xml:space="preserve" width="148" height="148" style="shape-rendering:geometricPrecision;text-rendering:geometricPrecision;image-rendering:optimizeQuality;fill-rule:evenodd;clip-rule:evenodd"><path d="M332.001 463.998h1384c19.094 0 36.628 7.13 49.498 18.606 13.885 12.384 22.502 29.74 22.502 49.07v984.652c0 19.332-8.622 36.687-22.504 49.068-12.87 11.48-30.407 18.608-49.496 18.608h-1384c-19.089 0-36.627-7.125-49.499-18.607-13.881-12.38-22.501-29.734-22.501-49.069V531.674c0-19.336 8.618-36.69 22.5-49.07 12.87-11.48 30.407-18.606 49.5-18.606zm131.773 524.914v60.834c10.247-11.945 22.46-17.954 36.677-17.954 7.32 0 13.868 1.388 19.763 4.084 5.857 2.698 10.286 6.164 13.253 10.363a37.738 37.738 0 0 1 6.088 14.025c1.117 5.085 1.657 13.06 1.657 23.81v70.31h-31.708v-63.337c0-12.561-.617-20.535-1.81-23.926-1.233-3.39-3.353-6.048-6.395-8.051-3.045-2.004-6.859-3.006-11.444-3.006-5.277 0-9.978 1.272-14.1 3.854-4.16 2.541-7.205 6.395-9.092 11.558-1.928 5.161-2.889 12.789-2.889 22.845v60.064h-31.708V988.912h31.708zm164.547 45.615v25.274h-21.652v48.314c0 9.785.193 15.486.617 17.105.422 1.618 1.347 2.927 2.812 4.006 1.463 1.04 3.275 1.58 5.354 1.58 2.967 0 7.204-1.042 12.791-3.045l2.698 24.581c-7.399 3.159-15.72 4.739-25.081 4.739-5.704 0-10.865-.964-15.45-2.85-4.585-1.928-7.936-4.432-10.094-7.476-2.156-3.043-3.621-7.166-4.468-12.367-.655-3.66-1.003-11.134-1.003-22.345V1059.8h-14.563v-25.273h14.563v-23.846l31.824-18.494v42.34h21.652zm76.976 0v25.274h-21.652v48.314c0 9.785.193 15.486.617 17.105.422 1.618 1.347 2.927 2.812 4.006 1.464 1.04 3.275 1.58 5.355 1.58 2.967 0 7.203-1.042 12.791-3.045l2.697 24.581c-7.398 3.159-15.72 4.739-25.081 4.739-5.702 0-10.865-.964-15.45-2.85-4.584-1.928-7.936-4.432-10.094-7.476-2.156-3.043-3.621-7.166-4.468-12.367-.655-3.66-1.003-11.134-1.003-22.345V1059.8H637.26v-25.273h14.561v-23.846l31.824-18.494v42.34h21.652zm21.113 0h29.588v17.608c3.815-6.05 9.016-10.941 15.565-14.679 6.549-3.775 13.83-5.664 21.805-5.664 13.909 0 25.737 5.47 35.406 16.375 9.71 10.903 14.564 26.12 14.564 45.614 0 19.996-4.893 35.56-14.64 46.656-9.786 11.096-21.651 16.644-35.56 16.644-6.627 0-12.637-1.31-18.03-3.93-5.356-2.657-11.02-7.167-16.99-13.562v60.41H726.41v-165.472zm31.399 57.906c0 13.446 2.657 23.425 8.014 29.818 5.316 6.435 11.827 9.673 19.533 9.673 7.36 0 13.483-2.967 18.376-8.861 4.893-5.896 7.36-15.604 7.36-29.05 0-12.598-2.543-21.92-7.591-28.008-5.046-6.087-11.288-9.132-18.724-9.132-7.743 0-14.178 2.967-19.302 8.976-5.123 5.972-7.666 14.834-7.666 26.584zm116.812-26.198v-31.708h31.707v31.708H874.62zm0 88.15v-31.708h31.707v31.708H874.62zm53.937 2.81L969.551 986.1h23.809l-41.416 171.096h-23.386zm64.224 0 40.993-171.095h23.808l-41.415 171.096h-23.386zm452.25-610.836c17.673 0 32 14.326 32 32 0 17.672-14.327 31.999-32 31.999-17.673 0-32-14.327-32-32 0-17.673 14.327-32 32-32zm190.97 0c17.673 0 32 14.326 32 32 0 17.672-14.327 31.999-32 31.999-17.673 0-32-14.327-32-32 0-17.673 14.327-32 32-32zm-96 0c17.673 0 32 14.326 32 32 0 17.672-14.327 31.999-32 31.999-17.673 0-32-14.327-32-32 0-17.673 14.327-32 32-32zm-1248 123.628h1464v36.019h-1464v-36.02z" style="fill:#424242"/><path style="fill:none" d="M0 0h2048v2048H0z"/></svg>
